<svg width="559" height="144" viewBox="0 0 559 144" fill="none" xmlns="http://www.w3.org/2000/svg">
<path d="M60.976 56.616L29.776 74.856L60.976 92.712L54.064 103.56L16.72 80.328V69.48L54.256 46.152L60.976 56.616ZM122.091 85.512C122.091 89.672 121.003 93.352 118.827 96.552C116.651 99.752 113.515 102.248 109.419 104.04C105.387 105.768 100.587 106.632 95.0185 106.632C84.0105 106.632 75.2425 103.432 68.7145 97.032L76.6825 88.2C81.7385 92.68 87.7225 94.92 94.6345 94.92C97.9625 94.92 100.619 94.216 102.603 92.808C104.651 91.336 105.675 89.32 105.675 86.76C105.675 84.328 104.811 82.44 103.083 81.096C101.419 79.688 98.2825 78.28 93.6745 76.872C85.8665 74.504 80.3305 71.72 77.0665 68.52C73.8025 65.32 72.1705 61.192 72.1705 56.136C72.1705 52.168 73.2585 48.712 75.4345 45.768C77.6745 42.824 80.6825 40.584 84.4585 39.048C88.2985 37.512 92.5545 36.744 97.2265 36.744C107.019 36.744 114.955 39.624 121.035 45.384L113.643 53.928C111.403 52.072 108.971 50.696 106.347 49.8C103.787 48.84 101.131 48.36 98.3785 48.36C95.3065 48.36 92.8745 48.936 91.0825 50.088C89.3545 51.176 88.4905 52.776 88.4905 54.888C88.4905 56.296 88.8745 57.48 89.6425 58.44C90.4745 59.4 91.8185 60.296 93.6745 61.128C95.5305 61.96 98.3145 62.952 102.027 64.104C108.811 66.152 113.835 68.808 117.099 72.072C120.427 75.272 122.091 79.752 122.091 85.512ZM153.829 27.336C156.453 27.336 158.597 28.168 160.261 29.832C161.925 31.432 162.757 33.448 162.757 35.88C162.757 38.376 161.925 40.424 160.261 42.024C158.597 43.624 156.453 44.424 153.829 44.424C151.205 44.424 149.029 43.624 147.301 42.024C145.637 40.36 144.805 38.312 144.805 35.88C144.805 33.448 145.637 31.432 147.301 29.832C149.029 28.168 151.205 27.336 153.829 27.336ZM162.949 94.632H176.005V105H133.381V94.632H147.781V64.392H133.861V54.024H162.949V94.632ZM227.136 52.296C230.784 52.296 233.44 53.512 235.104 55.944C236.832 58.312 237.696 62.088 237.696 67.272V105H224.736V69C224.736 67.144 224.544 65.864 224.16 65.16C223.84 64.456 223.2 64.104 222.24 64.104C220.448 64.104 218.688 65.224 216.96 67.464V105H206.208V69C206.208 67.144 206.016 65.864 205.632 65.16C205.312 64.456 204.672 64.104 203.712 64.104C201.92 64.104 200.16 65.224 198.432 67.464V105H185.28V54.024H196.32L197.376 58.92C199.04 56.616 200.672 54.952 202.272 53.928C203.936 52.84 205.856 52.296 208.031 52.296C210.016 52.296 211.68 52.808 213.024 53.832C214.368 54.792 215.328 56.296 215.904 58.344C219.36 54.312 223.104 52.296 227.136 52.296ZM269.05 52.296C276.794 52.296 282.842 54.76 287.194 59.688C291.61 64.552 293.818 71.112 293.818 79.368C293.818 87.944 291.642 94.632 287.29 99.432C282.938 104.232 276.858 106.632 269.05 106.632C261.242 106.632 255.162 104.264 250.81 99.528C246.458 94.728 244.282 88.04 244.282 79.464C244.282 74.024 245.242 69.288 247.162 65.256C249.146 61.16 251.994 57.992 255.706 55.752C259.482 53.448 263.93 52.296 269.05 52.296ZM269.05 63.528C265.914 63.528 263.61 64.808 262.138 67.368C260.666 69.864 259.93 73.896 259.93 79.464C259.93 85.096 260.666 89.192 262.138 91.752C263.61 94.248 265.914 95.496 269.05 95.496C272.186 95.496 274.49 94.216 275.962 91.656C277.434 89.096 278.17 85 278.17 79.368C278.17 73.864 277.434 69.864 275.962 67.368C274.49 64.808 272.186 63.528 269.05 63.528ZM304.533 54.024H317.781L318.837 59.88C321.141 57.32 323.541 55.432 326.036 54.216C328.597 52.936 331.477 52.296 334.677 52.296C339.093 52.296 342.517 53.64 344.949 56.328C347.445 59.016 348.693 62.76 348.693 67.56V105H333.525V71.976C333.525 68.776 333.173 66.568 332.469 65.352C331.765 64.136 330.485 63.528 328.629 63.528C327.093 63.528 325.589 64.04 324.117 65.064C322.709 66.024 321.237 67.464 319.701 69.384V105H304.533V54.024ZM415.722 110.28L456.042 26.568L467.754 32.04L427.53 115.752L415.722 110.28ZM521.476 69.384V80.328L484.036 103.56L477.22 93.192L508.324 74.856L477.22 57.096L483.94 46.152L521.476 69.384Z" fill="black"/>
<path d="M373.519 95.88C373.519 93 374.543 90.504 376.591 88.392C378.703 86.28 381.231 85.224 384.175 85.224C387.119 85.224 389.615 86.28 391.663 88.392C393.775 90.504 394.831 93 394.831 95.88C394.831 98.824 393.775 101.352 391.663 103.464C389.615 105.576 387.119 106.632 384.175 106.632C381.231 106.632 378.703 105.576 376.591 103.464C374.543 101.352 373.519 98.824 373.519 95.88Z" fill="#FF651C"/>
</svg>
