<?xml version="1.0" standalone="no"?>
<!DOCTYPE svg PUBLIC "-//W3C//DTD SVG 20010904//EN"
 "http://www.w3.org/TR/2001/REC-SVG-20010904/DTD/svg10.dtd">
<svg version="1.0" xmlns="http://www.w3.org/2000/svg"
 width="804.000000pt" height="804.000000pt" viewBox="0 0 804.000000 804.000000"
 preserveAspectRatio="xMidYMid meet">
<metadata>
Created by potrace 1.14, written by Peter Selinger 2001-2017
</metadata>
<g transform="translate(0.000000,804.000000) scale(0.100000,-0.100000)"
fill="#000000" stroke="none">
<path d="M4403 5791 c-12 -25 -52 -109 -89 -186 -37 -77 -69 -146 -70 -153 -1
-8 -10 -22 -18 -31 -9 -10 -16 -21 -16 -25 0 -5 -20 -49 -44 -100 -24 -50 -81
-167 -126 -261 -45 -93 -101 -208 -123 -255 -23 -47 -42 -87 -43 -90 0 -3 -38
-81 -84 -175 -101 -207 -214 -441 -286 -592 -30 -62 -78 -164 -108 -225 -29
-62 -91 -189 -136 -283 -45 -93 -106 -219 -135 -280 -29 -60 -83 -173 -121
-250 -37 -77 -68 -142 -69 -145 -1 -3 -28 -60 -61 -127 l-60 -122 61 -29 c33
-16 78 -37 100 -47 22 -10 92 -43 155 -73 63 -30 124 -58 136 -62 18 -7 26 4
77 108 69 143 229 475 287 597 23 50 78 163 121 251 131 271 202 419 203 424
1 3 21 46 45 95 24 50 76 155 114 235 39 80 72 147 72 150 13 36 31 70 37 70
4 0 8 5 8 12 0 11 14 43 116 253 32 66 57 123 56 127 -1 3 5 12 13 18 8 7 15
16 15 21 0 4 34 79 76 166 41 87 91 192 111 233 19 41 39 82 44 90 5 8 13 25
19 38 13 31 102 216 161 336 27 54 49 102 49 106 0 10 -290 152 -325 160 -5 1
-14 5 -20 10 -5 4 -35 19 -65 32 l-55 24 -22 -45z"/>
<path d="M2135 5033 c-16 -9 -32 -19 -35 -23 -3 -4 -16 -13 -30 -20 -14 -7
-54 -31 -90 -54 -36 -23 -74 -46 -85 -53 -21 -12 -215 -134 -263 -165 -15 -10
-34 -21 -42 -25 -8 -4 -52 -31 -97 -60 -46 -29 -87 -53 -93 -53 -5 0 -10 -4
-10 -10 0 -5 -7 -10 -15 -10 -8 0 -15 -4 -15 -10 0 -5 -4 -10 -9 -10 -6 0 -52
-27 -103 -60 -51 -33 -102 -65 -113 -70 -11 -6 -40 -24 -65 -40 -25 -16 -56
-35 -70 -42 -14 -7 -29 -17 -35 -21 -5 -5 -73 -48 -150 -95 l-140 -87 -3 -220
-2 -220 72 -45 c40 -25 77 -47 83 -49 5 -2 36 -21 67 -43 31 -21 61 -38 67
-38 5 0 11 -4 13 -8 3 -7 92 -64 214 -137 45 -27 375 -232 394 -245 51 -34
142 -90 146 -90 3 0 24 -13 47 -29 69 -47 388 -243 392 -239 1 2 35 55 75 118
40 63 94 148 121 188 27 40 49 75 49 79 0 4 7 14 16 24 14 16 14 19 -8 32 -34
22 -426 246 -473 271 -22 11 -41 24 -43 29 -2 4 -8 7 -13 7 -5 0 -39 18 -75
40 -36 22 -68 40 -69 40 -5 0 -120 66 -155 88 -14 9 -27 17 -30 17 -3 0 -12 5
-20 10 -8 6 -86 51 -173 100 -88 50 -159 94 -159 100 0 5 12 17 28 27 40 24
120 69 179 103 28 15 57 33 65 39 8 6 26 17 39 24 13 8 39 22 57 32 18 11 50
30 71 43 21 13 70 41 108 62 39 21 77 44 86 51 8 8 19 14 23 14 4 0 32 16 62
35 30 19 56 35 59 35 3 0 29 16 59 35 30 19 57 35 60 35 3 0 46 25 96 55 50
30 92 55 94 55 2 0 36 19 74 43 l71 44 -70 107 c-38 59 -69 111 -69 117 0 5
-3 9 -7 9 -5 0 -33 41 -63 90 -30 49 -57 90 -60 89 -3 0 -18 -7 -35 -16z"/>
<path d="M5491 4970 c-28 -45 -51 -84 -51 -89 0 -5 -6 -14 -14 -20 -8 -7 -24
-31 -36 -53 -12 -23 -43 -74 -70 -115 l-48 -73 81 -48 c45 -27 114 -66 152
-87 39 -21 72 -41 75 -44 3 -4 19 -13 35 -21 17 -8 69 -38 118 -67 48 -28 87
-49 87 -46 0 3 8 -1 18 -9 9 -9 37 -27 62 -40 25 -14 62 -35 83 -47 20 -11 53
-30 72 -41 19 -11 51 -29 70 -40 34 -19 58 -33 155 -88 25 -14 56 -32 70 -41
14 -8 27 -16 30 -16 3 0 16 -8 30 -16 14 -9 43 -27 66 -40 l41 -24 -305 -180
c-168 -99 -311 -181 -319 -183 -7 -2 -13 -7 -13 -12 0 -4 -8 -10 -17 -14 -10
-3 -31 -14 -48 -24 -16 -11 -46 -28 -65 -39 -19 -11 -112 -66 -207 -122 -94
-55 -177 -101 -182 -101 -6 0 -11 -4 -11 -9 0 -5 -8 -12 -17 -16 -10 -3 -26
-12 -36 -20 -18 -13 -18 -15 0 -47 10 -18 26 -41 36 -52 9 -11 17 -25 17 -31
0 -7 9 -20 20 -30 11 -10 20 -24 20 -31 0 -7 3 -14 8 -16 4 -1 32 -41 61 -88
30 -47 57 -87 61 -90 4 -3 9 -13 13 -22 4 -12 12 -15 23 -11 10 3 149 89 310
189 337 210 427 265 454 279 11 5 20 13 20 17 0 5 4 8 9 8 12 0 145 82 149 92
2 5 8 8 12 8 5 0 62 33 127 74 291 182 364 226 369 226 3 0 13 7 22 16 14 14
16 46 17 231 l0 215 -50 33 c-27 17 -68 43 -90 56 -22 13 -41 27 -43 31 -2 4
-8 8 -13 8 -6 0 -37 18 -70 40 -33 22 -62 40 -64 40 -3 0 -54 32 -116 70 -61
39 -115 70 -120 70 -5 0 -9 5 -9 10 0 6 -7 10 -15 10 -8 0 -15 5 -15 10 0 6
-5 10 -10 10 -6 0 -37 17 -70 38 -141 89 -163 102 -171 102 -5 0 -9 5 -9 10 0
6 -4 10 -9 10 -4 0 -146 86 -315 190 -168 105 -308 190 -310 190 -2 0 -27 -36
-55 -80z"/>
</g>
</svg>
